PathFileType	4	(X/Y/Z)	C:/Users/opensim2020/Desktop/walking_exp_matlab/subject02_walking11_straight_01.trc	
DataRate	CameraRate	NumFrames	NumMarkers	Units	OrigDataRate	OrigDataStartFrame	OrigNumFrames	
100.00	100.00	8	42	mm	100.00	734	267	
Frame#	Time	LFHD			RFHD			LBHD			RBHD			C7			T10			CLAV			STRN			RBAK			LSHO			LUPA			LELB			LFRM			LWRA			LWRB			LFIN			RSHO			RUPA			RELB			RFRM			RWRA			RWRB			RFIN			LASI			RASI			LPSI			RPSI			LTHI			LKNE			LTIB			LANK			LHEE			LTOE			RTHI			RKNE			RTIB			RANK			RHEE			RTOE			*39			*40			*41			
		X1	Y1	Z1	X2	Y2	Z2	X3	Y3	Z3	X4	Y4	Z4	X5	Y5	Z5	X6	Y6	Z6	X7	Y7	Z7	X8	Y8	Z8	X9	Y9	Z9	X10	Y10	Z10	X11	Y11	Z11	X12	Y12	Z12	X13	Y13	Z13	X14	Y14	Z14	X15	Y15	Z15	X16	Y16	Z16	X17	Y17	Z17	X18	Y18	Z18	X19	Y19	Z19	X20	Y20	Z20	X21	Y21	Z21	X22	Y22	Z22	X23	Y23	Z23	X24	Y24	Z24	X25	Y25	Z25	X26	Y26	Z26	X27	Y27	Z27	X28	Y28	Z28	X29	Y29	Z29	X30	Y30	Z30	X31	Y31	Z31	X32	Y32	Z32	X33	Y33	Z33	X34	Y34	Z34	X35	Y35	Z35	X36	Y36	Z36	X37	Y37	Z37	X38	Y38	Z38	X39	Y39	Z39	X40	Y40	Z40	X41	Y41	Z41	X42	Y42	Z42	

1	0.000	1444.03137	-1177.71069	1740.82861	1585.63770	-1189.89197	1712.25330	1419.18945	-1301.30566	1658.40869	1557.14026	-1325.13367	1627.11877	1479.69763	-1360.66187	1519.46301	1483.30457	-1423.26062	1246.60730	1470.45264	-1224.81799	1448.71375	1478.68237	-1178.19678	1274.19824	1541.11902	-1426.53711	1348.46863	1300.42786	-1285.12646	1498.20776	1215.11597	-1313.61108	1300.37573	1205.04333	-1335.37256	1161.31775	1185.19238	-1347.07031	1032.16650	1209.66028	-1312.55530	897.79272	1176.80457	-1356.42920	909.07788	1171.96240	-1349.34009	841.96521	1666.81262	-1286.30188	1477.28381	1750.88928	-1320.75647	1286.55164	1768.07727	-1309.93970	1141.17480	1790.57544	-1282.87183	1025.97815	1773.98340	-1235.37708	898.39148	1805.12183	-1281.37561	895.69458	1810.62134	-1244.07715	833.94153	1355.56274	-1204.08447	971.16888	1612.14563	-1197.42896	974.15717	1439.49158	-1409.70667	1022.69971	1554.18665	-1413.07690	1031.81433	1294.17798	-1245.76318	660.85132	1304.88794	-1248.71509	478.09995	1299.19592	-1394.93726	366.00690	1314.74438	-1528.36426	185.61337	1370.46582	-1567.76135	178.16742	1287.76648	-1437.58374	60.64292	1688.74500	-1252.35535	675.23840	1649.52368	-1241.13062	464.12820	1654.93018	-1276.63831	277.63156	1617.48938	-1286.36389	84.63882	1561.38782	-1316.55615	29.29586	1640.43652	-1133.41809	31.92738	1528.82275	-1291.54114	1792.59937	-3360.32739	2845.27515	1034.20020			 
2	0.010	1446.61023	-1171.90088	1741.67957	1588.78442	-1183.82153	1713.94495	1422.33289	-1295.33447	1659.40295	1560.35718	-1318.60986	1627.94568	1483.05054	-1353.98401	1520.61707	1486.94885	-1416.93115	1248.02136	1473.48181	-1217.68665	1449.87451	1480.96594	-1172.15027	1275.05725	1544.89001	-1419.69971	1349.91589	1303.46204	-1279.13538	1499.34741	1218.35608	-1308.07532	1301.18030	1208.07214	-1330.04443	1162.52258	1188.79517	-1340.85657	1033.02075	1213.03772	-1305.50793	898.87933	1180.42285	-1349.75464	909.88690	1175.98621	-1341.99561	842.69128	1669.88928	-1278.51172	1478.52966	1754.24341	-1312.29224	1287.65320	1770.93933	-1301.21973	1142.29358	1793.02942	-1274.24377	1027.03369	1776.25195	-1227.52966	899.34479	1807.87671	-1273.18848	896.82172	1813.13269	-1235.85913	835.05023	1357.52515	-1198.32861	973.18024	1614.00610	-1191.99414	974.30060	1442.58020	-1403.79712	1024.06738	1557.09753	-1406.89355	1032.55237	1295.45740	-1235.84619	663.70239	1307.00842	-1235.27380	480.61658	1303.99866	-1380.09351	366.32791	1320.61841	-1509.75293	183.47189	1377.20886	-1548.51587	173.95480	1288.47437	-1416.22717	62.70037	1690.00720	-1249.57080	675.09833	1650.06177	-1239.89343	464.04654	1655.27832	-1276.12354	277.71158	1617.33667	-1286.19165	84.61381	1561.05457	-1316.29871	29.17124	1640.42834	-1133.34009	31.91277	1531.99609	-1285.70789	1793.58118	-3357.29565	2845.91284	1034.36401			 
3	0.020	1449.61743	-1166.25659	1743.62915	1591.10840	-1177.27014	1714.98083	1425.30640	-1289.25586	1660.33435	1563.43835	-1312.01245	1628.75269	1486.31494	-1347.31384	1521.71387	1490.51709	-1410.60779	1249.38904	1476.01465	-1211.27124	1450.83838	1483.69202	-1165.46143	1276.01233	1548.55762	-1412.74072	1351.20679	1306.45496	-1273.24878	1500.40845	1221.18787	-1303.33350	1302.78076	1211.04480	-1324.54688	1163.65686	1191.85803	-1334.57336	1033.86682	1216.40540	-1298.38733	900.33118	1183.91614	-1343.08240	910.74597	1179.96606	-1334.24841	843.21759	1672.78833	-1270.83032	1479.88098	1757.43469	-1303.80286	1288.85852	1773.60742	-1292.32971	1143.41187	1795.70483	-1265.70862	1028.26184	1778.39429	-1219.32617	900.41724	1810.51904	-1264.82336	898.00952	1815.57227	-1227.61975	836.30786	1359.51489	-1192.40881	974.95813	1616.43420	-1185.72461	975.24994	1445.25024	-1397.77380	1025.32983	1559.79944	-1400.72571	1033.17944	1296.88171	-1225.68030	666.36707	1309.08716	-1222.24915	482.89276	1308.70215	-1365.40771	365.87180	1326.19995	-1490.41064	180.20512	1383.14368	-1528.46228	168.74367	1290.53564	-1393.28308	63.52464	1690.72131	-1247.36499	674.97205	1650.88831	-1238.55066	463.96365	1655.69556	-1275.46509	277.73730	1617.32922	-1286.10779	84.65576	1561.12988	-1316.50146	29.39054	1640.47742	-1133.28296	31.87462	1534.95642	-1279.75940	1794.44897	-3357.38745	2845.88330	1034.35193			 
4	0.030	1452.06934	-1160.45508	1744.92712	1593.53577	-1170.83728	1716.16052	1428.19727	-1283.35242	1661.18506	1566.38501	-1305.36890	1629.51855	1489.43140	-1340.67493	1522.74414	1493.97327	-1404.32190	1250.60669	1478.61694	-1204.60681	1451.81104	1485.67004	-1159.85522	1276.57837	1552.17029	-1405.90845	1352.57300	1309.35461	-1267.36694	1501.37219	1224.45117	-1298.21777	1303.86877	1214.00574	-1318.97595	1164.67944	1195.38086	-1328.19543	1034.48108	1219.43457	-1291.32019	901.29144	1187.40796	-1335.94177	911.40149	1183.37061	-1326.85229	844.26385	1675.63647	-1263.08459	1481.15857	1760.49902	-1295.33899	1290.08911	1776.36755	-1283.48645	1144.61536	1798.77686	-1257.41138	1029.74939	1780.37170	-1211.08582	901.46179	1813.06287	-1256.36890	899.40179	1817.85156	-1219.10791	837.49255	1361.82983	-1186.37598	976.97992	1618.53271	-1180.17444	975.96100	1447.55322	-1391.66650	1026.53308	1562.26685	-1394.56287	1033.64966	1298.23914	-1215.76050	668.96997	1311.15820	-1209.76404	485.00372	1313.14880	-1350.63953	364.66977	1331.53772	-1470.24634	175.96530	1388.71973	-1507.05505	162.64339	1293.14319	-1369.73438	63.33659	1691.40344	-1245.02026	674.69525	1651.45886	-1237.28564	463.72897	1656.09741	-1274.78674	277.72784	1617.33496	-1286.00354	84.69652	1560.98804	-1316.54431	29.50499	1640.57361	-1133.25232	31.71321	1537.83362	-1273.97546	1795.43604	-3357.40723	2845.74902	1034.25610			 
5	0.040	1454.23474	-1154.62183	1746.11365	1595.77673	-1164.37781	1717.36670	1430.84863	-1277.39246	1661.96277	1569.18616	-1298.73682	1630.25500	1492.44983	-1334.01624	1523.71118	1497.21594	-1397.98975	1251.71240	1481.19128	-1198.00232	1452.70935	1488.47058	-1153.11877	1277.55225	1555.64307	-1399.12695	1353.81299	1312.16699	-1261.49927	1502.29675	1227.34900	-1293.03333	1304.91077	1216.88586	-1313.36707	1165.58435	1198.44043	-1321.86084	1035.11499	1222.64502	-1283.78552	902.47095	1190.79492	-1328.78967	911.94226	1186.71558	-1319.18604	845.09601	1678.28992	-1255.63867	1482.52820	1763.41370	-1286.85779	1291.37073	1778.96960	-1274.65869	1145.90112	1800.72705	-1248.31140	1030.88013	1782.39050	-1202.65613	902.63416	1815.47729	-1247.53833	900.58917	1819.94580	-1210.28174	838.60431	1364.43164	-1180.28674	979.31873	1620.87280	-1174.21375	976.79437	1449.56946	-1385.52380	1027.76416	1564.44556	-1388.44116	1034.01636	1299.45825	-1205.88916	671.29156	1313.27161	-1197.65356	486.88550	1317.32178	-1335.67029	362.68723	1336.42517	-1449.39905	170.68944	1394.04565	-1485.15759	155.92462	1296.26514	-1345.49109	62.49990	1692.27356	-1242.43933	674.38196	1652.26367	-1235.90027	463.61194	1656.43591	-1274.16541	277.72784	1617.31360	-1285.91003	84.70361	1560.92786	-1316.41565	29.42384	1640.66101	-1133.23340	31.64614	1540.64600	-1268.15210	1796.30786	-3357.33716	2845.82642	1034.23840			 
6	0.050	1456.29834	-1148.59729	1747.09717	1597.86511	-1157.88721	1718.53662	1433.47729	-1271.19019	1662.65674	1571.81030	-1292.09021	1630.95654	1495.40076	-1327.41272	1524.68542	1500.33423	-1391.74597	1252.81042	1483.59595	-1191.41467	1453.61743	1490.69177	-1147.18848	1278.13208	1559.08875	-1392.55408	1355.09033	1314.86646	-1255.67810	1503.11121	1230.15344	-1287.65405	1305.96069	1219.83289	-1307.43994	1166.38110	1201.33716	-1315.59888	1035.98108	1225.48486	-1276.48413	903.79517	1194.05481	-1321.83997	912.66565	1190.13123	-1311.26331	845.53284	1680.91321	-1247.98926	1483.85303	1766.30933	-1278.44824	1292.71533	1781.49475	-1265.84583	1147.13269	1803.06689	-1239.50049	1032.19946	1784.28662	-1193.97327	903.84772	1817.78101	-1238.74170	902.01111	1821.95313	-1201.42993	839.85638	1367.08667	-1173.98267	981.50299	1622.62524	-1169.50146	977.07275	1451.29980	-1379.29321	1028.94214	1566.32239	-1382.37659	1034.35217	1301.22937	-1195.83191	673.72247	1315.33923	-1185.87000	488.59232	1321.10107	-1320.56506	360.24405	1341.10681	-1427.90759	164.72339	1398.91187	-1462.09961	148.50107	1300.04871	-1320.34241	61.17198	1693.29846	-1239.80811	674.15387	1652.77380	-1234.51379	463.40228	1656.57898	-1273.72534	277.79425	1617.24231	-1285.88208	84.77488	1560.98486	-1316.70056	29.93839	1640.73828	-1133.24121	31.58101	1542.90063	-1261.93005	1796.93408	-3357.28247	2845.90356	1034.31042			 
7	0.060	1457.86938	-1142.63354	1747.60291	1599.85254	-1151.42981	1719.58960	1435.86157	-1265.22803	1663.32019	1574.35864	-1285.45776	1631.63318	1498.21594	-1320.78625	1525.53052	1503.23767	-1385.43665	1253.73560	1485.94653	-1184.88416	1454.44336	1493.36182	-1140.57007	1278.96716	1562.31396	-1385.76758	1356.06104	1317.46326	-1249.83032	1503.82935	1233.15369	-1281.69910	1306.62170	1222.56018	-1301.78674	1167.14050	1204.25696	-1309.25940	1036.48706	1228.38501	-1268.87122	904.71112	1197.15881	-1314.92163	913.14282	1193.01611	-1303.50623	846.27765	1683.38733	-1240.53699	1485.14026	1769.17993	-1270.06470	1293.90955	1783.93042	-1257.06055	1148.27808	1805.76697	-1231.09375	1033.49829	1785.89856	-1185.23596	904.91309	1819.95837	-1229.60010	903.06274	1823.76892	-1192.40747	841.03516	1369.75146	-1167.52246	983.38416	1625.87537	-1161.88257	978.43890	1452.88208	-1373.00757	1030.10120	1568.01208	-1376.43298	1034.69653	1302.48914	-1186.29272	675.86066	1317.35852	-1174.36621	490.09766	1324.29773	-1305.15161	357.32870	1345.61536	-1405.47083	158.05273	1403.63245	-1439.94714	141.22163	1303.94495	-1294.33521	58.96725	1694.43518	-1236.94519	674.01331	1653.30347	-1233.07446	463.27350	1656.85437	-1273.19189	277.89987	1617.16248	-1285.80298	84.85403	1560.89001	-1316.72571	30.08265	1640.87939	-1133.27966	31.60036	1545.21753	-1255.79163	1797.70251	-3355.47998	2846.57056	1034.44373			 
8	0.070	1459.61182	-1136.75806	1748.43774	1601.77502	-1144.92859	1720.55103	1438.16504	-1259.13855	1663.90967	1576.75391	-1278.78906	1632.25110	1500.94373	-1314.22766	1526.31274	1505.92944	-1379.09534	1254.51196	1488.12842	-1178.35632	1455.19336	1495.75269	-1134.25122	1279.58484	1565.35474	-1378.78577	1356.76831	1319.96545	-1244.08032	1504.45129	1235.92334	-1275.42542	1306.89355	1225.10608	-1296.11926	1167.69653	1207.22888	-1302.45215	1036.58167	1230.67090	-1261.71472	905.42816	1200.05322	-1308.12854	913.57025	1195.90613	-1295.84021	846.81635	1685.70386	-1233.10193	1486.26807	1771.93176	-1261.70679	1295.11865	1786.29822	-1248.34436	1149.40601	1808.65527	-1222.34705	1035.08667	1787.56299	-1176.02869	905.99811	1821.98486	-1220.42407	904.21637	1825.43164	-1183.06750	842.01660	1372.51416	-1160.92749	985.31421	1627.24573	-1158.16638	978.13403	1454.40991	-1366.73242	1031.26038	1569.57275	-1370.62073	1035.12817	1303.83899	-1176.74194	677.71759	1319.39819	-1163.15027	491.40527	1327.14807	-1289.58911	353.92249	1349.92322	-1382.32153	150.90790	1407.70935	-1415.88684	132.30721	1308.10303	-1267.43665	56.58491	1695.39478	-1233.81213	673.79169	1653.73499	-1231.54089	463.13660	1657.12097	-1272.76465	278.14090	1617.02734	-1285.66394	84.95385	1560.74121	-1316.64722	30.21038	1641.01501	-1133.24292	31.55564	1547.43909	-1249.71777	1798.43530	-3356.96265	2846.00513	1034.34473			 
